<mxfile host="app.diagrams.net" modified="2023-05-31T16:52:28.971Z" agent="Mozilla/5.0 (Windows NT 10.0; Win64; x64) AppleWebKit/537.36 (KHTML, like Gecko) Chrome/113.0.0.0 Safari/537.36" version="21.3.4" etag="L_UN-dGo9Qs9cHoE83Re" type="github">
  <diagram name="PÃ¡gina-1" id="wfGjIwBuWWnTqgJ7j66R">
    <mxGraphModel>
      <root>
        <mxCell id="0" />
        <mxCell id="1" parent="0" />
      </root>
    </mxGraphModel>
  </diagram>
</mxfile>
